<?xml version="1.0" encoding="iso-8859-1"?>
<!-- Uploaded to: SVG Repo, www.svgrepo.com, Generator: SVG Repo Mixer Tools -->
<svg fill="#000000" height="800px" width="800px" version="1.1" id="Layer_1" xmlns="http://www.w3.org/2000/svg" xmlns:xlink="http://www.w3.org/1999/xlink" 
	 viewBox="0 0 512 512" xml:space="preserve">
<g>
	<g>
		<path d="M493.494,187.663c-24.673-24.674-64.824-24.674-89.497,0c-1.947,1.947-3.736,4.008-5.392,6.15
			c-3.188-5.918-6.712-11.666-10.567-17.21c0.502-0.973,0.971-1.971,1.368-3.015c4.281-11.234,1.259-23.656-7.701-31.646
			c-33.582-29.945-75.615-48.175-120.057-52.403c1.897-3.345,2.996-7.2,2.996-11.312c0-12.689-10.323-23.013-23.013-23.013
			S218.62,65.539,218.62,78.228c0,4.112,1.098,7.967,2.996,11.312c-44.442,4.229-86.473,22.458-120.055,52.403
			c-8.96,7.99-11.983,20.411-7.701,31.646c0.398,1.045,0.866,2.041,1.368,3.015c-7.989,11.487-14.569,23.843-19.639,36.788
			c-22.556-13.604-35.316-22.133-35.316-38.51H0c0,34.068,21.055,51.295,37.972,65.136c16.166,13.227,25.313,21.533,25.313,38.421
			c0,98.341,80.006,178.348,178.347,178.348c92.52,0,168.8-70.815,177.51-161.088h29.603c16.904,0,32.796-6.583,44.749-18.535
			C518.169,252.486,518.169,212.338,493.494,187.663z M241.632,123.102c37.899,0,74.517,12.161,104.7,34.519H136.932
			C167.115,135.263,203.734,123.102,241.632,123.102z M241.632,422.266c-79.307,0-143.829-64.522-143.829-143.829
			c0-31.156,10.166-61.502,28.77-86.297H356.69c18.604,24.796,28.77,55.143,28.77,86.297
			C385.461,357.744,320.939,422.266,241.632,422.266z M469.086,252.753c-5.433,5.433-12.657,8.425-20.341,8.425H419.98v-28.766
			c0-7.684,2.993-14.908,8.425-20.341c11.216-11.215,29.464-11.215,40.681,0C480.301,223.288,480.301,241.537,469.086,252.753z"/>
	</g>
</g>
<g>
	<g>
		<path d="M281.179,269.439l-0.001,0c-10.884-10.886-28.524-10.995-39.546-0.336c-11.023-10.661-28.661-10.548-39.547,0.336
			c-10.994,10.995-10.994,28.888,0.001,39.887l39.546,39.545l39.548-39.547C292.173,298.327,292.173,280.436,281.179,269.439z"/>
	</g>
</g>
</svg>