<svg width="482" height="491" xmlns="http://www.w3.org/2000/svg" version="1.1" xml:space="preserve">
 <g>
  <title>Layer 1</title>
  <path transform="rotate(39 214.064 304.012)" stroke="#000000" class="st0" d="m404.45246,202.57462c-32.83477,23.24701 -55.34174,48.06693 -70.62171,69.82009c-9.92164,14.13593 -18.64486,9.898 -25.50486,-0.14157c-35.16333,-81.79384 -35.16333,-135.22207 -35.16333,-135.22207l-162.10756,0c0,0 -0.0082,26.60426 -12.35129,70.99127c-3.75374,-0.24269 -8.06845,-2.86083 -12.71737,-8.65604c-15.60781,-19.44207 -38.1849,-33.53019 -66.1358,-28.40423c-57.28053,10.49554 -55.55119,115.56948 33.62886,163.58125c-12.79569,68.2003 21.61179,118.56361 52.84198,136.44932l171.57751,0c43.72171,-17.1466 68.97068,-92.32156 96.05736,-153.9425c22.4669,-51.13276 73.23621,-103.79154 73.23621,-103.79154l-42.74002,-10.68399zm-335.99814,86.25976c-1.13741,2.42968 -2.18012,4.83547 -3.20006,7.23298c-46.12859,-5.33832 -61.11259,-78.40626 -35.52122,-83.42926c32.80198,-6.43871 49.16473,20.77872 51.33028,47.13936c-3.73006,9.30046 -7.89725,18.97875 -12.609,29.05692z" fill="none" id="svg_2" opacity="0.68" stroke-width="8"/>
  <path transform="rotate(10 338.656 72.7287)" class="st0" d="m354.44676,68.5552c4.721,-4.31 7.74,-10.451 7.74,-17.344c0,-12.999 -10.536,-23.535 -23.526,-23.535c-12.999,0 -23.535,10.536 -23.535,23.535c0,6.893 3.019,13.034 7.748,17.344c-31.352,4.824 -57.342,23.715 -69.52,49.226l170.604,0c-12.169,-25.511 -38.159,-44.403 -69.511,-49.226z" fill="none" id="svg_3" stroke="#000000" opacity="0.68" stroke-width="8"/>
  <g stroke="#000000" opacity="0.68" stroke-width="8" fill="none">
   <g stroke-width="5" stroke="null">
    <path transform="rotate(42 171.218 312.462)" stroke="null" d="m275.2503,290.33062l-55.79842,0l0,-8.73734c0,-14.93121 -6.77136,-28.78788 -18.5779,-38.01718c-1.50963,-1.17996 -3.6883,-0.91271 -4.8678,0.59645c-1.1795,1.50917 -0.91271,3.6883 0.59645,4.8678c10.11381,7.90555 15.91374,19.7708 15.91374,32.55293l0,8.73734l-7.2943,0c-1.5984,-7.64893 -8.37207,-13.42066 -16.47783,-13.46689c-1.61875,-8.19684 -8.86218,-14.39718 -17.52694,-14.39718s-15.90819,6.2008 -17.52694,14.39718c-8.10575,0.0467 -14.87942,5.81796 -16.47783,13.46689l-7.29337,0l0,-8.73734c0,-12.78259 5.79993,-24.64785 15.91328,-32.55293c1.5087,-1.1795 1.77595,-3.35863 0.59645,-4.8678c-1.17904,-1.5087 -3.35771,-1.77595 -4.8678,-0.59645c-11.80607,9.22884 -18.57743,23.08551 -18.57743,38.01718l0,8.73734l-55.79842,0c-1.91512,0 -3.46775,1.55263 -3.46775,3.46775c0,25.2087 20.50874,45.7179 45.7179,45.7179l13.67773,0c1.38571,19.4735 14.35464,36.25371 33.15539,42.39579c0.35787,0.11652 0.72083,0.17246 1.07778,0.17246c1.45969,0 2.81766,-0.92889 3.29575,-2.39182c0.5946,-1.8208 -0.39902,-3.77846 -2.21936,-4.37306c-15.93963,-5.20717 -26.98696,-19.34126 -28.35741,-35.80291l6.96371,0c1.74405,17.32534 16.41124,30.89534 34.18878,30.89534s32.44427,-13.57 34.18878,-30.89534l6.96371,0c-1.37045,16.46164 -12.41778,30.59573 -28.35741,35.80291c-1.82034,0.59507 -2.81396,2.55273 -2.21936,4.37306c0.47809,1.46293 1.83606,2.39182 3.29575,2.39182c0.35648,0 0.7199,-0.05548 1.07778,-0.17246c18.80122,-6.14208 31.76968,-22.92229 33.15586,-42.39579l13.67773,0c25.2087,0 45.7179,-20.50874 45.7179,-45.7179c-0.00046,-1.91512 -1.55309,-3.46775 -3.46821,-3.46775zm-121.4605,-6.53185l3.03128,0l14.92289,0c1.91512,0 3.46775,-1.55263 3.46775,-3.46775s-1.55263,-3.46775 -3.46775,-3.46775l-10.88781,0c1.45322,-4.33099 5.54794,-7.46167 10.3621,-7.46167c6.02649,0 10.92896,4.90294 10.92896,10.92942c0,1.91512 1.55263,3.46775 3.46775,3.46775l3.03128,0c5.51372,0 9.99961,4.48588 9.99961,9.99961c0,5.51372 -4.48588,9.99914 -9.99961,9.99914l-8.1862,0c-3.53341,0 -6.82315,1.40282 -9.24225,3.76043c-2.41864,-2.35761 -5.70884,-3.76043 -9.24225,-3.76043l-8.18574,0c-5.51372,0 -9.99961,-4.48588 -9.99961,-9.99914c0,-5.51372 4.48542,-9.99961 9.99961,-9.99961zm-66.75605,41.63427l21.89168,0c1.91512,0 3.46775,-1.55263 3.46775,-3.46775s-1.55263,-3.46775 -3.46775,-3.46775l-29.36907,0c-1.81571,-2.19254 -3.391,-4.58991 -4.69487,-7.14773l25.70898,0c1.91512,0 3.46775,-1.55263 3.46775,-3.46775s-1.55263,-3.46775 -3.46775,-3.46775l-28.44018,0c-0.6561,-2.30305 -1.10552,-4.69256 -1.32376,-7.14773l66.04816,0l0,35.31465l-27.41927,0c-8.34017,-0.00046 -16.07002,-2.65167 -22.40167,-7.14819zm56.75644,10.61548l0,-28.59415c2.80425,2.05892 6.26137,3.27864 9.99961,3.27864l8.18574,0c2.5199,0 4.77902,1.49899 5.7745,3.77846l0,48.73761c-13.4914,-1.71076 -23.95984,-13.25189 -23.95984,-27.20057zm30.89534,27.20103l0,-48.73761c0.99548,-2.27947 3.2546,-3.77846 5.7745,-3.77846l8.1862,0c3.73777,0 7.19535,-1.21972 9.99961,-3.27864l0,28.59415c-0.00046,13.94822 -10.46891,25.48935 -23.96031,27.20057zm30.89534,-30.66879l0,-35.31465l66.0477,0c-0.21824,2.45517 -0.66766,4.84468 -1.32376,7.14773l-28.44018,0c-1.91512,0 -3.46775,1.55263 -3.46775,3.46775s1.55263,3.46775 3.46775,3.46775l25.70898,0c-1.30387,2.55781 -2.87916,4.95518 -4.69487,7.14773l-29.36907,0c-1.91512,0 -3.46775,1.55263 -3.46775,3.46775s1.55263,3.46775 3.46775,3.46775l21.89168,0c-6.33165,4.49698 -14.0615,7.14773 -22.40167,7.14773l-27.41881,0l0,0.00046z"/>
    <path transform="rotate(42 221.828 256.254)" stroke="null" d="m221.82783,274.95806c10.31309,0 18.70366,-8.39057 18.70366,-18.70412s-8.39057,-18.70412 -18.70366,-18.70412c-10.31355,0 -18.70412,8.39057 -18.70412,18.70412s8.39057,18.70412 18.70412,18.70412zm0,-30.47274c6.48885,0 11.76816,5.2793 11.76816,11.76862s-5.2793,11.76862 -11.76816,11.76862c-6.48932,0 -11.76862,-5.2793 -11.76862,-11.76862s5.2793,-11.76862 11.76862,-11.76862z"/>
   </g>
  </g>
 </g>

</svg>