<svg width="512" height="512" xmlns="http://www.w3.org/2000/svg" xml:space="preserve" version="1.1">

 <g>
  <title>Layer 1</title>
  <path transform="rotate(39 246.576 289.06)" stroke-width="8" opacity="0.68" stroke="#000000" id="svg_2" fill="none" d="m455.64269,178.71665c-36.056,25.288 -60.771,52.287 -77.55,75.95c-10.895,15.377 -20.474,10.767 -28.007,-0.154c-38.613,-88.975 -38.613,-147.094 -38.613,-147.094l-178.011,0c0,0 -0.009,28.94 -13.563,77.224c-4.122,-0.264 -8.86,-3.112 -13.965,-9.416c-17.139,-21.149 -41.931,-36.474 -72.624,-30.898c-62.9,11.417 -61.001,125.716 36.928,177.943c-14.051,74.188 23.732,128.973 58.026,148.429l188.41,0c48.011,-18.652 75.737,-100.427 105.481,-167.458c24.671,-55.622 80.421,-112.904 80.421,-112.904l-46.933,-11.622zm-368.961,93.833c-1.249,2.643 -2.394,5.26 -3.514,7.868c-50.654,-5.807 -67.108,-85.29 -39.006,-90.754c36.02,-7.004 53.988,22.603 56.366,51.278c-4.096,10.117 -8.672,20.645 -13.846,31.608z" class="st0"/>
  <path transform="rotate(39 380.168 85.7768)" stroke-width="8" opacity="0.68" stroke="#000000" id="svg_3" fill="none" d="m395.95921,81.60331c4.721,-4.31 7.74,-10.451 7.74,-17.344c0,-12.999 -10.536,-23.535 -23.526,-23.535c-12.999,0 -23.535,10.536 -23.535,23.535c0,6.893 3.019,13.034 7.748,17.344c-31.352,4.824 -57.342,23.715 -69.52,49.226l170.604,0c-12.169,-25.511 -38.159,-44.403 -69.511,-49.226z" class="st0"/>
 </g>
</svg>