<?xml version="1.0" encoding="utf-8"?>

<!DOCTYPE svg PUBLIC "-//W3C//DTD SVG 1.1//EN" "http://www.w3.org/Graphics/SVG/1.1/DTD/svg11.dtd">
<!-- Uploaded to: SVG Repo, www.svgrepo.com, Generator: SVG Repo Mixer Tools -->
<svg height="800px" width="800px" version="1.1" id="_x32_" xmlns="http://www.w3.org/2000/svg" xmlns:xlink="http://www.w3.org/1999/xlink" 
	 viewBox="0 0 512 512"  xml:space="preserve">
<style type="text/css">
	.st0{fill:#000000;}
</style>
<g>
	<path class="st0" d="M465.067,198.389c-36.056,25.288-60.771,52.287-77.55,75.95c-10.895,15.377-20.474,10.767-28.007-0.154
		c-38.613-88.975-38.613-147.094-38.613-147.094H142.886c0,0-0.009,28.94-13.563,77.224c-4.122-0.264-8.86-3.112-13.965-9.416
		c-17.139-21.149-41.931-36.474-72.624-30.898c-62.9,11.417-61.001,125.716,36.928,177.943
		c-14.051,74.188,23.732,128.973,58.026,148.429h188.41c48.011-18.652,75.737-100.427,105.481-167.458
		C456.25,267.293,512,210.011,512,210.011L465.067,198.389z M96.106,292.222c-1.249,2.643-2.394,5.26-3.514,7.868
		c-50.654-5.807-67.108-85.29-39.006-90.754c36.02-7.004,53.988,22.603,56.366,51.278
		C105.856,270.731,101.28,281.259,96.106,292.222z"/>
	<path class="st0" d="M247.682,62.506c4.721-4.31,7.74-10.451,7.74-17.344c0-12.999-10.536-23.535-23.526-23.535
		c-12.999,0-23.535,10.536-23.535,23.535c0,6.893,3.019,13.034,7.748,17.344c-31.352,4.824-57.342,23.715-69.52,49.226h170.604
		C305.024,86.221,279.034,67.329,247.682,62.506z"/>
</g>
</svg>